<svg width="17" height="17" viewBox="0 0 17 17" fill="none" xmlns="http://www.w3.org/2000/svg">
<path d="M5.66732 12.75H11.334V11.3333H5.66732V12.75ZM5.66732 9.91663H11.334V8.49996H5.66732V9.91663ZM4.25065 15.5833C3.86107 15.5833 3.52756 15.4446 3.25013 15.1671C2.9727 14.8897 2.83398 14.5562 2.83398 14.1666V2.83329C2.83398 2.44371 2.9727 2.1102 3.25013 1.83277C3.52756 1.55534 3.86107 1.41663 4.25065 1.41663H9.91732L14.1673 5.66663V14.1666C14.1673 14.5562 14.0286 14.8897 13.7512 15.1671C13.4737 15.4446 13.1402 15.5833 12.7507 15.5833H4.25065ZM9.20898 6.37496V2.83329H4.25065V14.1666H12.7507V6.37496H9.20898Z" fill="#295BFF"/>
</svg>
