<svg width="17" height="17" viewBox="0 0 17 17" fill="none" xmlns="http://www.w3.org/2000/svg">
<path d="M10.8368 11.8291L11.8285 10.8375L9.20768 8.21663V4.95829H7.79102V8.78329L10.8368 11.8291ZM8.49935 15.5833C7.51949 15.5833 6.59865 15.3974 5.73685 15.0255C4.87504 14.6536 4.12539 14.1489 3.48789 13.5114C2.85039 12.8739 2.3457 12.1243 1.97383 11.2625C1.60195 10.4007 1.41602 9.47982 1.41602 8.49996C1.41602 7.5201 1.60195 6.59926 1.97383 5.73746C2.3457 4.87565 2.85039 4.126 3.48789 3.4885C4.12539 2.851 4.87504 2.34631 5.73685 1.97444C6.59865 1.60256 7.51949 1.41663 8.49935 1.41663C9.47921 1.41663 10.4 1.60256 11.2618 1.97444C12.1237 2.34631 12.8733 2.851 13.5108 3.4885C14.1483 4.126 14.653 4.87565 15.0249 5.73746C15.3967 6.59926 15.5827 7.5201 15.5827 8.49996C15.5827 9.47982 15.3967 10.4007 15.0249 11.2625C14.653 12.1243 14.1483 12.8739 13.5108 13.5114C12.8733 14.1489 12.1237 14.6536 11.2618 15.0255C10.4 15.3974 9.47921 15.5833 8.49935 15.5833ZM8.49935 14.1666C10.0695 14.1666 11.4065 13.6147 12.5103 12.5109C13.6141 11.4071 14.166 10.0701 14.166 8.49996C14.166 6.92982 13.6141 5.59284 12.5103 4.48902C11.4065 3.3852 10.0695 2.83329 8.49935 2.83329C6.92921 2.83329 5.59223 3.3852 4.48841 4.48902C3.38459 5.59284 2.83268 6.92982 2.83268 8.49996C2.83268 10.0701 3.38459 11.4071 4.48841 12.5109C5.59223 13.6147 6.92921 14.1666 8.49935 14.1666Z" fill="#295BFF"/>
</svg>
