<svg width="25" height="24" viewBox="0 0 25 24" fill="none" xmlns="http://www.w3.org/2000/svg">
<g clip-path="url(#clip0_2345_1171)">
<path d="M0.136719 18V16.425C0.136719 15.7083 0.503385 15.125 1.23672 14.675C1.97005 14.225 2.93672 14 4.13672 14C4.35339 14 4.56172 14.0042 4.76172 14.0125C4.96172 14.0208 5.15339 14.0417 5.33672 14.075C5.10339 14.425 4.92839 14.7917 4.81172 15.175C4.69505 15.5583 4.63672 15.9583 4.63672 16.375V18H0.136719ZM6.13672 18V16.375C6.13672 15.8417 6.28255 15.3542 6.57422 14.9125C6.86589 14.4708 7.27839 14.0833 7.81172 13.75C8.34505 13.4167 8.98255 13.1667 9.72422 13C10.4659 12.8333 11.2701 12.75 12.1367 12.75C13.0201 12.75 13.8326 12.8333 14.5742 13C15.3159 13.1667 15.9534 13.4167 16.4867 13.75C17.0201 14.0833 17.4284 14.4708 17.7117 14.9125C17.9951 15.3542 18.1367 15.8417 18.1367 16.375V18H6.13672ZM19.6367 18V16.375C19.6367 15.9417 19.5826 15.5333 19.4742 15.15C19.3659 14.7667 19.2034 14.4083 18.9867 14.075C19.1701 14.0417 19.3576 14.0208 19.5492 14.0125C19.7409 14.0042 19.9367 14 20.1367 14C21.3367 14 22.3034 14.2208 23.0367 14.6625C23.7701 15.1042 24.1367 15.6917 24.1367 16.425V18H19.6367ZM8.26172 16H16.0367C15.8701 15.6667 15.4076 15.375 14.6492 15.125C13.8909 14.875 13.0534 14.75 12.1367 14.75C11.2201 14.75 10.3826 14.875 9.62422 15.125C8.86589 15.375 8.41172 15.6667 8.26172 16ZM4.13672 13C3.58672 13 3.11589 12.8042 2.72422 12.4125C2.33255 12.0208 2.13672 11.55 2.13672 11C2.13672 10.4333 2.33255 9.95833 2.72422 9.575C3.11589 9.19167 3.58672 9 4.13672 9C4.70339 9 5.17839 9.19167 5.56172 9.575C5.94505 9.95833 6.13672 10.4333 6.13672 11C6.13672 11.55 5.94505 12.0208 5.56172 12.4125C5.17839 12.8042 4.70339 13 4.13672 13ZM20.1367 13C19.5867 13 19.1159 12.8042 18.7242 12.4125C18.3326 12.0208 18.1367 11.55 18.1367 11C18.1367 10.4333 18.3326 9.95833 18.7242 9.575C19.1159 9.19167 19.5867 9 20.1367 9C20.7034 9 21.1784 9.19167 21.5617 9.575C21.9451 9.95833 22.1367 10.4333 22.1367 11C22.1367 11.55 21.9451 12.0208 21.5617 12.4125C21.1784 12.8042 20.7034 13 20.1367 13ZM12.1367 12C11.3034 12 10.5951 11.7083 10.0117 11.125C9.42839 10.5417 9.13672 9.83333 9.13672 9C9.13672 8.15 9.42839 7.4375 10.0117 6.8625C10.5951 6.2875 11.3034 6 12.1367 6C12.9867 6 13.6992 6.2875 14.2742 6.8625C14.8492 7.4375 15.1367 8.15 15.1367 9C15.1367 9.83333 14.8492 10.5417 14.2742 11.125C13.6992 11.7083 12.9867 12 12.1367 12ZM12.1367 10C12.4201 10 12.6576 9.90417 12.8492 9.7125C13.0409 9.52083 13.1367 9.28333 13.1367 9C13.1367 8.71667 13.0409 8.47917 12.8492 8.2875C12.6576 8.09583 12.4201 8 12.1367 8C11.8534 8 11.6159 8.09583 11.4242 8.2875C11.2326 8.47917 11.1367 8.71667 11.1367 9C11.1367 9.28333 11.2326 9.52083 11.4242 9.7125C11.6159 9.90417 11.8534 10 12.1367 10Z" fill="#295BFF"/>
</g>
<defs>
<clipPath id="clip0_2345_1171">
<rect width="24" height="24" fill="white" transform="translate(0.136719)"/>
</clipPath>
</defs>
</svg>
