<svg width="19" height="18" viewBox="0 0 19 18" fill="none" xmlns="http://www.w3.org/2000/svg">
<path d="M3.88672 16.5C3.47422 16.5 3.12109 16.3531 2.82734 16.0594C2.53359 15.7656 2.38672 15.4125 2.38672 15V4.5C2.38672 4.0875 2.53359 3.73438 2.82734 3.44063C3.12109 3.14688 3.47422 3 3.88672 3H4.63672V1.5H6.13672V3H12.1367V1.5H13.6367V3H14.3867C14.7992 3 15.1523 3.14688 15.4461 3.44063C15.7398 3.73438 15.8867 4.0875 15.8867 4.5V15C15.8867 15.4125 15.7398 15.7656 15.4461 16.0594C15.1523 16.3531 14.7992 16.5 14.3867 16.5H3.88672ZM3.88672 15H14.3867V7.5H3.88672V15ZM3.88672 6H14.3867V4.5H3.88672V6ZM9.13672 10.5C8.92422 10.5 8.74609 10.4281 8.60234 10.2844C8.45859 10.1406 8.38672 9.9625 8.38672 9.75C8.38672 9.5375 8.45859 9.35938 8.60234 9.21563C8.74609 9.07188 8.92422 9 9.13672 9C9.34922 9 9.52734 9.07188 9.67109 9.21563C9.81484 9.35938 9.88672 9.5375 9.88672 9.75C9.88672 9.9625 9.81484 10.1406 9.67109 10.2844C9.52734 10.4281 9.34922 10.5 9.13672 10.5ZM6.13672 10.5C5.92422 10.5 5.74609 10.4281 5.60234 10.2844C5.45859 10.1406 5.38672 9.9625 5.38672 9.75C5.38672 9.5375 5.45859 9.35938 5.60234 9.21563C5.74609 9.07188 5.92422 9 6.13672 9C6.34922 9 6.52734 9.07188 6.67109 9.21563C6.81484 9.35938 6.88672 9.5375 6.88672 9.75C6.88672 9.9625 6.81484 10.1406 6.67109 10.2844C6.52734 10.4281 6.34922 10.5 6.13672 10.5ZM12.1367 10.5C11.9242 10.5 11.7461 10.4281 11.6023 10.2844C11.4586 10.1406 11.3867 9.9625 11.3867 9.75C11.3867 9.5375 11.4586 9.35938 11.6023 9.21563C11.7461 9.07188 11.9242 9 12.1367 9C12.3492 9 12.5273 9.07188 12.6711 9.21563C12.8148 9.35938 12.8867 9.5375 12.8867 9.75C12.8867 9.9625 12.8148 10.1406 12.6711 10.2844C12.5273 10.4281 12.3492 10.5 12.1367 10.5ZM9.13672 13.5C8.92422 13.5 8.74609 13.4281 8.60234 13.2844C8.45859 13.1406 8.38672 12.9625 8.38672 12.75C8.38672 12.5375 8.45859 12.3594 8.60234 12.2156C8.74609 12.0719 8.92422 12 9.13672 12C9.34922 12 9.52734 12.0719 9.67109 12.2156C9.81484 12.3594 9.88672 12.5375 9.88672 12.75C9.88672 12.9625 9.81484 13.1406 9.67109 13.2844C9.52734 13.4281 9.34922 13.5 9.13672 13.5ZM6.13672 13.5C5.92422 13.5 5.74609 13.4281 5.60234 13.2844C5.45859 13.1406 5.38672 12.9625 5.38672 12.75C5.38672 12.5375 5.45859 12.3594 5.60234 12.2156C5.74609 12.0719 5.92422 12 6.13672 12C6.34922 12 6.52734 12.0719 6.67109 12.2156C6.81484 12.3594 6.88672 12.5375 6.88672 12.75C6.88672 12.9625 6.81484 13.1406 6.67109 13.2844C6.52734 13.4281 6.34922 13.5 6.13672 13.5ZM12.1367 13.5C11.9242 13.5 11.7461 13.4281 11.6023 13.2844C11.4586 13.1406 11.3867 12.9625 11.3867 12.75C11.3867 12.5375 11.4586 12.3594 11.6023 12.2156C11.7461 12.0719 11.9242 12 12.1367 12C12.3492 12 12.5273 12.0719 12.6711 12.2156C12.8148 12.3594 12.8867 12.5375 12.8867 12.75C12.8867 12.9625 12.8148 13.1406 12.6711 13.2844C12.5273 13.4281 12.3492 13.5 12.1367 13.5Z" fill="#295BFF"/>
</svg>
